<svg width="585" height="116" viewBox="0 0 585 116" fill="none" xmlns="http://www.w3.org/2000/svg">
<path d="M0.136364 100L11.7273 30.1818H30.6818L21.6818 84.7273H49.9091L47.3182 100H0.136364ZM66.8765 100H46.4219L81.0583 30.1818H106.967L118.422 100H97.9674L91.1492 49.4091H90.6038L66.8765 100ZM67.6947 72.4545H106.149L103.695 86.6364H65.2401L67.6947 72.4545ZM118.906 100L130.497 30.1818H160.634C165.815 30.1818 170.19 31.125 173.759 33.0114C177.327 34.8977 179.895 37.6136 181.463 41.1591C183.031 44.7045 183.406 48.9545 182.588 53.9091C181.77 58.9091 179.963 63.125 177.168 66.5568C174.395 69.9659 170.861 72.5568 166.565 74.3295C162.293 76.0795 157.497 76.9545 152.179 76.9545H134.179L136.634 62.2273H150.815C153.043 62.2273 154.997 61.9545 156.679 61.4091C158.361 60.8409 159.725 59.9545 160.77 58.75C161.815 57.5227 162.497 55.9091 162.815 53.9091C163.134 51.9091 162.975 50.2841 162.338 49.0341C161.702 47.7614 160.645 46.8295 159.168 46.2386C157.69 45.625 155.861 45.3182 153.679 45.3182H146.997L137.861 100H118.906ZM165.134 67.9545L177.27 100H156.679L144.952 67.9545H165.134ZM195.865 100H175.411L210.047 30.1818H235.956L247.411 100H226.956L220.138 49.4091H219.592L195.865 100ZM196.683 72.4545H235.138L232.683 86.6364H194.229L196.683 72.4545ZM246.174 45.4545L248.764 30.1818H309.446L306.855 45.4545H285.855L276.855 100H258.174L267.174 45.4545H246.174ZM316.476 100L307.476 30.1818H328.612L331.067 73.1364H331.612L350.022 30.1818H366.658L370.885 73.2727H371.431L388.067 30.1818H409.203L377.022 100H358.885L353.567 61H353.022L334.612 100H316.476ZM397.509 100L409.1 30.1818H459.418L456.827 45.4545H425.463L423.554 57.4545H452.327L449.736 72.7273H420.963L419.054 84.7273H450.282L447.691 100H397.509ZM450.988 100L462.579 30.1818H512.897L510.306 45.4545H478.942L477.033 57.4545H505.806L503.215 72.7273H474.442L472.533 84.7273H503.76L501.169 100H450.988ZM511.557 45.4545L514.148 30.1818H574.83L572.239 45.4545H551.239L542.239 100H523.557L532.557 45.4545H511.557Z" fill="#FF0000"/>
<path d="M0.136364 100L11.7273 30.1818H30.6818L21.6818 84.7273H49.9091L47.3182 100H0.136364ZM66.8765 100H46.4219L81.0583 30.1818H106.967L118.422 100H97.9674L91.1492 49.4091H90.6038L66.8765 100ZM67.6947 72.4545H106.149L103.695 86.6364H65.2401L67.6947 72.4545ZM118.906 100L130.497 30.1818H160.634C165.815 30.1818 170.19 31.125 173.759 33.0114C177.327 34.8977 179.895 37.6136 181.463 41.1591C183.031 44.7045 183.406 48.9545 182.588 53.9091C181.77 58.9091 179.963 63.125 177.168 66.5568C174.395 69.9659 170.861 72.5568 166.565 74.3295C162.293 76.0795 157.497 76.9545 152.179 76.9545H134.179L136.634 62.2273H150.815C153.043 62.2273 154.997 61.9545 156.679 61.4091C158.361 60.8409 159.725 59.9545 160.77 58.75C161.815 57.5227 162.497 55.9091 162.815 53.9091C163.134 51.9091 162.975 50.2841 162.338 49.0341C161.702 47.7614 160.645 46.8295 159.168 46.2386C157.69 45.625 155.861 45.3182 153.679 45.3182H146.997L137.861 100H118.906ZM165.134 67.9545L177.27 100H156.679L144.952 67.9545H165.134ZM195.865 100H175.411L210.047 30.1818H235.956L247.411 100H226.956L220.138 49.4091H219.592L195.865 100ZM196.683 72.4545H235.138L232.683 86.6364H194.229L196.683 72.4545ZM246.174 45.4545L248.764 30.1818H309.446L306.855 45.4545H285.855L276.855 100H258.174L267.174 45.4545H246.174ZM316.476 100L307.476 30.1818H328.612L331.067 73.1364H331.612L350.022 30.1818H366.658L370.885 73.2727H371.431L388.067 30.1818H409.203L377.022 100H358.885L353.567 61H353.022L334.612 100H316.476ZM397.509 100L409.1 30.1818H459.418L456.827 45.4545H425.463L423.554 57.4545H452.327L449.736 72.7273H420.963L419.054 84.7273H450.282L447.691 100H397.509ZM450.988 100L462.579 30.1818H512.897L510.306 45.4545H478.942L477.033 57.4545H505.806L503.215 72.7273H474.442L472.533 84.7273H503.76L501.169 100H450.988ZM511.557 45.4545L514.148 30.1818H574.83L572.239 45.4545H551.239L542.239 100H523.557L532.557 45.4545H511.557Z" fill="#FF0000"/>
<path d="M0.136364 100L11.7273 30.1818H30.6818L21.6818 84.7273H49.9091L47.3182 100H0.136364ZM66.8765 100H46.4219L81.0583 30.1818H106.967L118.422 100H97.9674L91.1492 49.4091H90.6038L66.8765 100ZM67.6947 72.4545H106.149L103.695 86.6364H65.2401L67.6947 72.4545ZM118.906 100L130.497 30.1818H160.634C165.815 30.1818 170.19 31.125 173.759 33.0114C177.327 34.8977 179.895 37.6136 181.463 41.1591C183.031 44.7045 183.406 48.9545 182.588 53.9091C181.77 58.9091 179.963 63.125 177.168 66.5568C174.395 69.9659 170.861 72.5568 166.565 74.3295C162.293 76.0795 157.497 76.9545 152.179 76.9545H134.179L136.634 62.2273H150.815C153.043 62.2273 154.997 61.9545 156.679 61.4091C158.361 60.8409 159.725 59.9545 160.77 58.75C161.815 57.5227 162.497 55.9091 162.815 53.9091C163.134 51.9091 162.975 50.2841 162.338 49.0341C161.702 47.7614 160.645 46.8295 159.168 46.2386C157.69 45.625 155.861 45.3182 153.679 45.3182H146.997L137.861 100H118.906ZM165.134 67.9545L177.27 100H156.679L144.952 67.9545H165.134ZM195.865 100H175.411L210.047 30.1818H235.956L247.411 100H226.956L220.138 49.4091H219.592L195.865 100ZM196.683 72.4545H235.138L232.683 86.6364H194.229L196.683 72.4545ZM246.174 45.4545L248.764 30.1818H309.446L306.855 45.4545H285.855L276.855 100H258.174L267.174 45.4545H246.174ZM316.476 100L307.476 30.1818H328.612L331.067 73.1364H331.612L350.022 30.1818H366.658L370.885 73.2727H371.431L388.067 30.1818H409.203L377.022 100H358.885L353.567 61H353.022L334.612 100H316.476ZM397.509 100L409.1 30.1818H459.418L456.827 45.4545H425.463L423.554 57.4545H452.327L449.736 72.7273H420.963L419.054 84.7273H450.282L447.691 100H397.509ZM450.988 100L462.579 30.1818H512.897L510.306 45.4545H478.942L477.033 57.4545H505.806L503.215 72.7273H474.442L472.533 84.7273H503.76L501.169 100H450.988ZM511.557 45.4545L514.148 30.1818H574.83L572.239 45.4545H551.239L542.239 100H523.557L532.557 45.4545H511.557Z" fill="#FF0000"/>
<path d="M0.136364 100L11.7273 30.1818H30.6818L21.6818 84.7273H49.9091L47.3182 100H0.136364ZM66.8765 100H46.4219L81.0583 30.1818H106.967L118.422 100H97.9674L91.1492 49.4091H90.6038L66.8765 100ZM67.6947 72.4545H106.149L103.695 86.6364H65.2401L67.6947 72.4545ZM118.906 100L130.497 30.1818H160.634C165.815 30.1818 170.19 31.125 173.759 33.0114C177.327 34.8977 179.895 37.6136 181.463 41.1591C183.031 44.7045 183.406 48.9545 182.588 53.9091C181.77 58.9091 179.963 63.125 177.168 66.5568C174.395 69.9659 170.861 72.5568 166.565 74.3295C162.293 76.0795 157.497 76.9545 152.179 76.9545H134.179L136.634 62.2273H150.815C153.043 62.2273 154.997 61.9545 156.679 61.4091C158.361 60.8409 159.725 59.9545 160.77 58.75C161.815 57.5227 162.497 55.9091 162.815 53.9091C163.134 51.9091 162.975 50.2841 162.338 49.0341C161.702 47.7614 160.645 46.8295 159.168 46.2386C157.69 45.625 155.861 45.3182 153.679 45.3182H146.997L137.861 100H118.906ZM165.134 67.9545L177.27 100H156.679L144.952 67.9545H165.134ZM195.865 100H175.411L210.047 30.1818H235.956L247.411 100H226.956L220.138 49.4091H219.592L195.865 100ZM196.683 72.4545H235.138L232.683 86.6364H194.229L196.683 72.4545ZM246.174 45.4545L248.764 30.1818H309.446L306.855 45.4545H285.855L276.855 100H258.174L267.174 45.4545H246.174ZM316.476 100L307.476 30.1818H328.612L331.067 73.1364H331.612L350.022 30.1818H366.658L370.885 73.2727H371.431L388.067 30.1818H409.203L377.022 100H358.885L353.567 61H353.022L334.612 100H316.476ZM397.509 100L409.1 30.1818H459.418L456.827 45.4545H425.463L423.554 57.4545H452.327L449.736 72.7273H420.963L419.054 84.7273H450.282L447.691 100H397.509ZM450.988 100L462.579 30.1818H512.897L510.306 45.4545H478.942L477.033 57.4545H505.806L503.215 72.7273H474.442L472.533 84.7273H503.76L501.169 100H450.988ZM511.557 45.4545L514.148 30.1818H574.83L572.239 45.4545H551.239L542.239 100H523.557L532.557 45.4545H511.557Z" fill="#FF0000"/>
<path d="M4.13636 96L15.7273 26.1818H34.6818L25.6818 80.7273H53.9091L51.3182 96H4.13636ZM70.8765 96H50.4219L85.0583 26.1818H110.967L122.422 96H101.967L95.1492 45.4091H94.6038L70.8765 96ZM71.6947 68.4545H110.149L107.695 82.6364H69.2401L71.6947 68.4545ZM122.906 96L134.497 26.1818H164.634C169.815 26.1818 174.19 27.125 177.759 29.0114C181.327 30.8977 183.895 33.6136 185.463 37.1591C187.031 40.7045 187.406 44.9545 186.588 49.9091C185.77 54.9091 183.963 59.125 181.168 62.5568C178.395 65.9659 174.861 68.5568 170.565 70.3295C166.293 72.0795 161.497 72.9545 156.179 72.9545H138.179L140.634 58.2273H154.815C157.043 58.2273 158.997 57.9545 160.679 57.4091C162.361 56.8409 163.725 55.9545 164.77 54.75C165.815 53.5227 166.497 51.9091 166.815 49.9091C167.134 47.9091 166.975 46.2841 166.338 45.0341C165.702 43.7614 164.645 42.8295 163.168 42.2386C161.69 41.625 159.861 41.3182 157.679 41.3182H150.997L141.861 96H122.906ZM169.134 63.9545L181.27 96H160.679L148.952 63.9545H169.134ZM199.865 96H179.411L214.047 26.1818H239.956L251.411 96H230.956L224.138 45.4091H223.592L199.865 96ZM200.683 68.4545H239.138L236.683 82.6364H198.229L200.683 68.4545ZM250.174 41.4545L252.764 26.1818H313.446L310.855 41.4545H289.855L280.855 96H262.174L271.174 41.4545H250.174ZM320.476 96L311.476 26.1818H332.612L335.067 69.1364H335.612L354.022 26.1818H370.658L374.885 69.2727H375.431L392.067 26.1818H413.203L381.022 96H362.885L357.567 57H357.022L338.612 96H320.476ZM401.509 96L413.1 26.1818H463.418L460.827 41.4545H429.463L427.554 53.4545H456.327L453.736 68.7273H424.963L423.054 80.7273H454.282L451.691 96H401.509ZM454.988 96L466.579 26.1818H516.897L514.306 41.4545H482.942L481.033 53.4545H509.806L507.215 68.7273H478.442L476.533 80.7273H507.76L505.169 96H454.988ZM515.557 41.4545L518.148 26.1818H578.83L576.239 41.4545H555.239L546.239 96H527.557L536.557 41.4545H515.557Z" fill="#1400FF"/>
<path d="M10.1364 93L21.7273 23.1818H40.6818L31.6818 77.7273H59.9091L57.3182 93H10.1364ZM76.8765 93H56.4219L91.0583 23.1818H116.967L128.422 93H107.967L101.149 42.4091H100.604L76.8765 93ZM77.6947 65.4545H116.149L113.695 79.6364H75.2401L77.6947 65.4545ZM128.906 93L140.497 23.1818H170.634C175.815 23.1818 180.19 24.125 183.759 26.0114C187.327 27.8977 189.895 30.6136 191.463 34.1591C193.031 37.7045 193.406 41.9545 192.588 46.9091C191.77 51.9091 189.963 56.125 187.168 59.5568C184.395 62.9659 180.861 65.5568 176.565 67.3295C172.293 69.0795 167.497 69.9545 162.179 69.9545H144.179L146.634 55.2273H160.815C163.043 55.2273 164.997 54.9545 166.679 54.4091C168.361 53.8409 169.725 52.9545 170.77 51.75C171.815 50.5227 172.497 48.9091 172.815 46.9091C173.134 44.9091 172.975 43.2841 172.338 42.0341C171.702 40.7614 170.645 39.8295 169.168 39.2386C167.69 38.625 165.861 38.3182 163.679 38.3182H156.997L147.861 93H128.906ZM175.134 60.9545L187.27 93H166.679L154.952 60.9545H175.134ZM205.865 93H185.411L220.047 23.1818H245.956L257.411 93H236.956L230.138 42.4091H229.592L205.865 93ZM206.683 65.4545H245.138L242.683 79.6364H204.229L206.683 65.4545ZM256.174 38.4545L258.764 23.1818H319.446L316.855 38.4545H295.855L286.855 93H268.174L277.174 38.4545H256.174ZM326.476 93L317.476 23.1818H338.612L341.067 66.1364H341.612L360.022 23.1818H376.658L380.885 66.2727H381.431L398.067 23.1818H419.203L387.022 93H368.885L363.567 54H363.022L344.612 93H326.476ZM407.509 93L419.1 23.1818H469.418L466.827 38.4545H435.463L433.554 50.4545H462.327L459.736 65.7273H430.963L429.054 77.7273H460.282L457.691 93H407.509ZM460.988 93L472.579 23.1818H522.897L520.306 38.4545H488.942L487.033 50.4545H515.806L513.215 65.7273H484.442L482.533 77.7273H513.76L511.169 93H460.988ZM521.557 38.4545L524.148 23.1818H584.83L582.239 38.4545H561.239L552.239 93H533.557L542.557 38.4545H521.557Z" fill="white"/>
</svg>
